# xmcd CD database file generated by OrangeCD 5.2
#
# Track frame offsets:
#	150
#	13802
#	26492
#	36067
#	48275
#	71612
#	83262
#	107765
#	122412
#	150432
#	169502
#	193452
#
# Disc length: 2870 seconds
#
# Revision: 2
# Processed by: cddbd v1.5PL3 Copyright (c) Steve Scherf et al.
# Submitted via: OrangeCD 5.2
#
DISCID=8a0b340c
DTITLE=B.B. King - Martin Scorsese Presents: The Blues
DYEAR=2003
DGENRE=Blues
TTITLE0=Three O' Clock Blues
TTITLE1=Everyday I Have The Blues
TTITLE2=Sneakin' Around
TTITLE3=How Blue Can You Get?
TTITLE4=Don't Answer The Door
TTITLE5=Paying The Cost To Be The Boss
TTITLE6=The Thrill Is Gone
TTITLE7=Ain't Nobody Home
TTITLE8=Don't You Lie To Me
TTITLE9=Inflation Blues
TTITLE10=Playin' With My Friends
TTITLE11=I'll Survive
EXTD=
EXTT0=
EXTT1=
EXTT2=
EXTT3=
EXTT4=
EXTT5=
EXTT6=
EXTT7=
EXTT8=
EXTT9=
EXTT10=
EXTT11=
PLAYORDER=
